<?xml version="1.0" encoding="utf-8"?>
<!-- Generator: Adobe Illustrator 17.1.0, SVG Export Plug-In . SVG Version: 6.00 Build 0)  -->
<!DOCTYPE svg PUBLIC "-//W3C//DTD SVG 1.1//EN" "http://www.w3.org/Graphics/SVG/1.1/DTD/svg11.dtd">
<svg version="1.1" id="Layer_1" xmlns="http://www.w3.org/2000/svg" xmlns:xlink="http://www.w3.org/1999/xlink" x="0px" y="0px"
	 viewBox="0 0 792 612" enable-background="new 0 0 792 612" xml:space="preserve">
<g>
	<g>
		<g>
			<g>
				<path id="SVGID_1_" fill="#7DC242" d="M383.7,226.1v56.8c13.2,0,27.4-5.7,37.8-16.1c10.4-10.4,15.1-24.6,15.1-40.7L383.7,226.1
					L383.7,226.1z M462.2,59.6c-20.8,0-38.8,6.6-53.9,19.9c-15.1-13.2-33.1-19.9-53-19.9v56.8c5.7,0,15.1,2.8,19.9,8.5
					c5.7,5.7,8.5,11.4,8.5,16.1l0,0v81.3h53v-80.4v-0.9c0-6.6,2.8-12.3,7.6-17c4.7-4.7,10.4-7.6,17-7.6l0,0L462.2,59.6L462.2,59.6z
					 M464.1,116.3c6.6,0.9,11.4,3.8,16.1,8.5s6.6,10.4,6.6,17c0,6.6-2.8,12.3-7.6,18c-4.7,4.7-10.4,7.6-18,7.6h-22.7v56.8h23.6
					c22.7,0,41.6-8.5,57.7-24.6c16.1-16.1,23.6-35,23.6-57.7c0-21.8-7.6-41.6-23.6-56.8c-15.1-16.1-34.1-24.6-56.8-24.6L464.1,116.3
					L464.1,116.3z"/>
			</g>
			<g>
				<g>
					<defs>
						<path id="SVGID_2_" d="M383.7,226.1v56.8c13.2,0,27.4-5.7,37.8-16.1c10.4-10.4,15.1-24.6,15.1-40.7L383.7,226.1L383.7,226.1z
							 M462.2,59.6c-20.8,0-38.8,6.6-53.9,19.9c-15.1-13.2-33.1-19.9-53-19.9v56.8c5.7,0,15.1,2.8,19.9,8.5
							c5.7,5.7,8.5,11.4,8.5,16.1l0,0v81.3h53v-80.4v-0.9c0-6.6,2.8-12.3,7.6-17c4.7-4.7,10.4-7.6,17-7.6l0,0L462.2,59.6L462.2,59.6
							z M464.1,116.3c6.6,0.9,11.4,3.8,16.1,8.5s6.6,10.4,6.6,17c0,6.6-2.8,12.3-7.6,18c-4.7,4.7-10.4,7.6-18,7.6h-22.7v56.8h23.6
							c22.7,0,41.6-8.5,57.7-24.6c16.1-16.1,23.6-35,23.6-57.7c0-21.8-7.6-41.6-23.6-56.8c-15.1-16.1-34.1-24.6-56.8-24.6
							L464.1,116.3L464.1,116.3z"/>
					</defs>
					<clipPath id="SVGID_4_">
						<use xlink:href="#SVGID_2_"  overflow="visible"/>
					</clipPath>
					<rect x="354.4" y="59.6" clip-path="url(#SVGID_4_)" fill="#FFFFFF" width="189.2" height="223.2"/>
				</g>
			</g>
		</g>
	</g>
	<g>
		<g>
			<g>
				<path id="SVGID_3_" fill="#7DC242" d="M328.8,59.6c-22.7,0-41.6,8.5-57.7,24.6c-16.1,16.1-23.6,35-23.6,56.8
					c0,22.7,7.6,41.6,23.6,57.7c15.1,16.1,34.1,24.6,56.8,24.6v-56.8c-6.6-0.9-11.4-3.8-16.1-8.5s-7.6-10.4-7.6-17
					c0-6.6,2.8-13.2,7.6-18s10.4-7.6,17-7.6h22.7V58.6h-22.7V59.6z M354.4,59.6v81.3v0.9c0,6.6-2.8,12.3-7.6,17
					c-4.7,4.7-10.4,7.6-17,7.6l0,0v56.8l0,0c20.8,0,38.8-6.6,53.9-20.8c16.1,13.2,33.1,20.8,53,20.8v-56.8c-6.6,0-12.3-2.8-17-8.5
					s-7.6-11.4-8.5-17l0,0V59.6H354.4z M370.5,16.1c-10.4,10.4-15.1,24.6-16.1,40.7h56.8V0C394.1,0,380.9,5.7,370.5,16.1"/>
			</g>
			<g>
				<g>
					<defs>
						<path id="SVGID_5_" d="M328.8,59.6c-22.7,0-41.6,8.5-57.7,24.6c-16.1,16.1-23.6,35-23.6,56.8c0,22.7,7.6,41.6,23.6,57.7
							c15.1,16.1,34.1,24.6,56.8,24.6v-56.8c-6.6-0.9-11.4-3.8-16.1-8.5s-7.6-10.4-7.6-17c0-6.6,2.8-13.2,7.6-18s10.4-7.6,17-7.6
							h22.7V58.6h-22.7V59.6z M354.4,59.6v81.3v0.9c0,6.6-2.8,12.3-7.6,17c-4.7,4.7-10.4,7.6-17,7.6l0,0v56.8l0,0
							c20.8,0,38.8-6.6,53.9-20.8c16.1,13.2,33.1,20.8,53,20.8v-56.8c-6.6,0-12.3-2.8-17-8.5s-7.6-11.4-8.5-17l0,0V59.6H354.4z
							 M370.5,16.1c-10.4,10.4-15.1,24.6-16.1,40.7h56.8V0C394.1,0,380.9,5.7,370.5,16.1"/>
					</defs>
					<clipPath id="SVGID_6_">
						<use xlink:href="#SVGID_5_"  overflow="visible"/>
					</clipPath>
					<rect x="247.5" y="0" clip-path="url(#SVGID_6_)" fill="#FFFFFF" width="189.2" height="223.2"/>
				</g>
			</g>
		</g>
	</g>
</g>
<g>
	<g>
		<g>
			<g>
				<g>
					<defs>
						<path id="SVGID_7_" d="M383.7,555.2V612c13.2,0,27.4-5.7,37.8-16.1c10.4-10.4,15.1-24.6,15.1-40.7H383.7L383.7,555.2z
							 M462.2,388.8c-20.8,0-38.8,6.6-53.9,19.9c-15.1-13.2-33.1-19.9-53-19.9v56.8c5.7,0,15.1,2.8,19.9,8.5
							c5.7,5.7,8.5,11.4,8.5,16.1l0,0v81.3h53v-81.3v-0.9c0-6.6,2.8-12.3,7.6-17c4.7-4.7,10.4-7.6,17-7.6l0,0L462.2,388.8
							L462.2,388.8L462.2,388.8z M464.1,445.5c6.6,0.9,11.4,3.8,16.1,8.5c4.7,4.7,6.6,10.4,6.6,17s-2.8,12.3-7.6,18
							c-4.7,4.7-10.4,7.6-18,7.6h-22.7v56.8h23.6c22.7,0,41.6-8.5,57.7-24.6c16.1-16.1,23.6-35,23.6-57.7c0-21.8-7.6-41.6-23.6-56.8
							c-15.1-16.1-34.1-24.6-56.8-24.6L464.1,445.5L464.1,445.5z"/>
					</defs>
					<clipPath id="SVGID_8_">
						<use xlink:href="#SVGID_7_"  overflow="visible"/>
					</clipPath>
					
						<radialGradient id="SVGID_9_" cx="-641.6735" cy="28.2411" r="0.2247" gradientTransform="matrix(986.8184 0 0 986.8184 633676.6875 -27471.9512)" gradientUnits="userSpaceOnUse">
						<stop  offset="0" style="stop-color:#E39826"/>
						<stop  offset="1" style="stop-color:#DD5D26"/>
					</radialGradient>
					<rect x="354.4" y="388.8" clip-path="url(#SVGID_8_)" fill="url(#SVGID_9_)" width="189.2" height="223.2"/>
				</g>
			</g>
		</g>
	</g>
	<g>
		<g>
			<g>
				<g>
					<defs>
						<path id="SVGID_10_" d="M328.8,388.8c-22.7,0-41.6,8.5-57.7,24.6c-16.1,15.1-23.6,35-23.6,56.8c0,22.7,7.6,41.6,23.6,57.7
							c15.1,16.1,34.1,24.6,56.8,24.6v-56.8c-6.6-0.9-11.4-3.8-16.1-8.5c-4.7-4.7-7.6-10.4-7.6-16.1c0-6.6,2.8-13.2,7.6-18
							s10.4-7.6,17-7.6h22.7v-56.8H328.8L328.8,388.8L328.8,388.8z M354.4,388.8v81.3v0.9c0,6.6-2.8,12.3-7.6,17
							c-4.7,4.7-10.4,7.6-17,7.6l0,0v56.8l0,0c20.8,0,38.8-6.6,53.9-20.8c16.1,13.2,33.1,20.8,53,20.8v-56.8c-6.6,0-12.3-2.8-17-8.5
							c-4.7-5.7-7.6-11.4-8.5-17l0,0v-82.3L354.4,388.8L354.4,388.8z M370.5,345.3c-10.4,10.4-15.1,24.6-16.1,40.7h56.8v-56.8
							C394.1,329.2,380.9,334.9,370.5,345.3"/>
					</defs>
					<clipPath id="SVGID_11_">
						<use xlink:href="#SVGID_10_"  overflow="visible"/>
					</clipPath>
					
						<radialGradient id="SVGID_12_" cx="-641.2269" cy="28.2348" r="0.2245" gradientTransform="matrix(995.2729 0 0 995.2729 638514.125 -27715.9004)" gradientUnits="userSpaceOnUse">
						<stop  offset="0" style="stop-color:#01A2CF"/>
						<stop  offset="1" style="stop-color:#005D9A"/>
					</radialGradient>
					<rect x="247.5" y="329.2" clip-path="url(#SVGID_11_)" fill="url(#SVGID_12_)" width="189.2" height="223.2"/>
				</g>
			</g>
		</g>
	</g>
</g>
</svg>
